<?xml version="1.0" encoding="UTF-8"?>
<svg version="1.1" xmlns="http://www.w3.org/2000/svg" width="512" height="512">
<path d="M0 0 C42.24 0 84.48 0 128 0 C123.394454 51.81239254 123.394454 51.81239254 121.54223633 71.29785156 C121.32642464 73.57869046 121.11071501 75.85953901 120.89509583 78.14039612 C120.32637972 84.15219735 119.75596873 90.16383633 119.18491578 96.17541599 C118.8268555 99.94511585 118.4691015 103.71484467 118.1114254 107.48458099 C117.11457996 117.98984035 116.11726464 128.49505483 115.11795521 139.00008011 C115.05505981 139.66126631 114.9921644 140.32245252 114.92736308 141.00367467 C114.86436208 141.66596769 114.80136109 142.32826071 114.73645097 143.01062322 C114.60888622 144.35164585 114.48132248 145.69266858 114.35375977 147.03369141 C114.29049056 147.69881354 114.22722135 148.36393567 114.16203489 149.04921302 C113.12510377 159.95116979 112.09220115 170.85350448 111.06089178 181.75599435 C109.99398827 193.03413699 108.92367242 204.31195071 107.85013217 215.58946395 C107.25051344 221.88925593 106.65235632 228.18917856 106.05777931 234.48944855 C105.50267953 240.37046242 104.94338993 246.25106233 104.38076591 252.13136101 C104.1748152 254.29165656 103.97041378 256.45210042 103.76763153 258.61269569 C103.49204662 261.54650791 103.21102441 264.47974786 102.92854309 267.41290283 C102.80860378 268.71070407 102.80860378 268.71070407 102.68624145 270.03472352 C102.11413381 275.88586619 102.11413381 275.88586619 101 277 C98.70488504 277.09971155 96.40665451 277.12799866 94.109375 277.12939453 C93.38907104 277.13114685 92.66876709 277.13289917 91.92663574 277.13470459 C89.53439966 277.13912288 87.1422369 277.13618521 84.75 277.1328125 C83.09472642 277.13348555 81.43945293 277.13445558 79.78417969 277.13571167 C76.31053733 277.13718861 72.83692063 277.13503421 69.36328125 277.13037109 C64.90067502 277.1246738 60.43812892 277.12795283 55.9755249 277.13394356 C52.5561477 277.13754927 49.13678485 277.13641054 45.71740723 277.13381577 C44.07149244 277.13314652 42.42557637 277.13397482 40.77966309 277.13629532 C38.48328169 277.13882202 36.18699901 277.13498103 33.890625 277.12939453 C31.92657715 277.12820114 31.92657715 277.12820114 29.92285156 277.12698364 C27 277 27 277 26 276 C25.77417551 274.54742759 25.60994118 273.08522117 25.47090054 271.62178993 C25.33206154 270.19512802 25.33206154 270.19512802 25.19041771 268.73964465 C25.09216589 267.68237496 24.99391408 266.62510528 24.89268494 265.53579712 C24.73214476 263.86547584 24.73214476 263.86547584 24.56836134 262.16141069 C24.2078803 258.39918084 23.8538538 254.63637076 23.49975586 250.87353516 C23.24383513 248.18859705 22.98756176 245.50369478 22.73085022 242.8188324 C22.104973 236.26435873 21.48387651 229.70944029 20.86433738 223.15436484 C20.14323614 215.52673619 19.41732784 207.89956741 18.69117493 200.27241831 C17.39588215 186.66567881 16.10480635 173.0585425 14.81616211 159.45117188 C13.56475267 146.23703553 12.31067453 133.02315629 11.0534668 119.80957031 C10.97606764 118.99607945 10.89866847 118.18258859 10.81892388 117.3444465 C10.66300774 115.7057372 10.50709126 114.06702793 10.35117445 112.4283187 C10.23581495 111.21586728 10.23581495 111.21586728 10.11812496 109.97892189 C10.04141604 109.17270707 9.96470713 108.36649226 9.8856737 107.53584669 C8.68918238 94.959674 7.49488103 82.38329323 6.30090917 69.80688114 C5.86763897 65.24330403 5.43409677 60.67975286 5.00037067 56.11621906 C4.31231892 48.87648019 3.6252255 41.63665173 2.94007223 34.39663793 C2.62684449 31.08690696 2.31302967 27.77723458 1.99830246 24.46764565 C1.6576639 20.88461019 1.31876102 17.30141484 0.98033142 13.71817017 C0.87984888 12.66536193 0.77936635 11.61255368 0.67583889 10.52784216 C0.5858873 9.57151873 0.49593572 8.61519529 0.40325832 7.62989235 C0.32481857 6.80226438 0.24637881 5.97463641 0.16556209 5.12192881 C0 3 0 3 0 0 Z " fill="#000000" transform="translate(192,32)"/>
<path d="M0 0 C10.2425928 12.51323987 13.30234691 26.52298066 12.25 42.375 C10.19051638 55.61453758 3.37343285 68.23675389 -7.35546875 76.34375 C-21.60837004 85.83228231 -36.03457373 88.38047745 -52.90234375 85.9140625 C-66.94298395 82.04549065 -78.59214634 72.96655279 -85.75 60.375 C-92.33698081 45.75428549 -94.33807878 30.74221666 -88.75 15.375 C-83.29034217 2.67079619 -74.17320456 -7.55488348 -61.421875 -13.0625 C-39.31869235 -21.48276006 -16.64878905 -17.3564557 0 0 Z " fill="#000000" transform="translate(295.75,393.625)"/>
</svg>
